Coordinates
version=1
nRows=9
nColumns=36
inDegrees=yes

Units are S.I. units (second, meters, Newtons, ...)
If the header above contains a line with 'inDegrees', this indicates whether rotational values are in degrees (yes) or radians (no).

endheader
time	pelvis_tilt	pelvis_list	pelvis_rotation	pelvis_tx	pelvis_ty	pelvis_tz	hip_flexion_r	hip_adduction_r	hip_rotation_r	knee_angle_r	knee_angle_r_beta	ankle_angle_r	subtalar_angle_r	mtp_angle_r	hip_flexion_l	hip_adduction_l	hip_rotation_l	knee_angle_l	knee_angle_l_beta	ankle_angle_l	subtalar_angle_l	mtp_angle_l	lumbar_extension	lumbar_bending	lumbar_rotation	arm_flex_r	arm_add_r	arm_rot_r	elbow_flex_r	pro_sup_r	arm_flex_l	arm_add_l	arm_rot_l	elbow_flex_l	pro_sup_l
      8.96666670	     12.05144859	      1.30661545	     -4.48414606	      0.87593572	      0.90312536	     -0.46734112	     40.23846418	    -11.24964598	     -0.64138832	     23.22922298	      0.40542642	    -15.67567733	      3.19209401	     -7.49999987	      7.60742602	      7.90369999	      3.23420109	     36.73592528	      0.64116285	     20.88816639	     -1.14552629	     -7.49999987	    -30.41468111	     -6.62071741	      0.42474799	     84.80967268	     -5.20659244	     65.26269440	    103.95659447	     75.53076865	    102.70220339	      6.12509533	     68.94067547	    109.20043835	     84.81678301
      8.98333330	     11.81215651	      1.93714164	     -4.51338731	      0.87621519	      0.90258016	     -0.46677423	     40.25168553	    -11.58576857	     -0.27258454	     22.64017428	      0.39514558	    -16.00863174	      3.80783467	     -7.49999987	      8.28374456	      8.69984151	      3.27055849	     37.40360208	      0.65281601	     21.11044696	     -1.34096691	     -7.49999987	    -30.30155585	     -6.85445696	     -0.88510454	     83.44564400	     -5.08535977	     65.23596136	    103.68794164	     74.77040029	    101.79729316	      5.38104410	     68.56245473	    108.14788464	     83.81435713
      9.00000000	     11.85647677	      2.44677003	     -4.60451055	      0.87601673	      0.89079730	     -0.46714226	     40.22958189	    -11.80858452	      0.39947260	     22.39306567	      0.39083273	    -15.99158162	      4.03341890	     -7.49999987	      8.85609011	      9.38792237	      3.21280143	     38.39667844	      0.67014846	     21.34317418	     -1.58390311	     -7.49999987	    -30.80189542	     -6.74806747	     -1.54490019	     83.71864082	     -4.90011239	     65.21388512	    103.70824807	     74.77749179	    101.77431940	      4.76716697	     68.87282825	    106.81251107	     83.77427759
      9.01666670	     11.75214426	      3.24649739	     -4.56620187	      0.87573506	      0.88774572	     -0.46738080	     40.78612648	    -12.36295004	      1.14192282	     22.59816807	      0.39441244	    -16.02215729	      4.03925882	     -7.49999987	      9.78122734	     10.40752872	      3.16075510	     39.58002961	      0.69080183	     21.84001366	     -1.92298689	     -7.49999987	    -31.78226051	     -7.38493173	     -1.78036877	     84.84214581	     -5.61960920	     68.35103390	    103.22498129	     81.74182029	    102.93964265	      6.00823597	     71.19364234	    103.89619106	     88.57306276
      9.03333330	     11.64542770	      4.03669528	     -4.53835774	      0.87014475	      0.87718965	     -0.47092755	     41.62081367	    -12.91124107	      1.98990702	     23.14229854	      0.40390931	    -16.06388782	      3.76357094	     -7.49999987	     11.10106775	     11.46032970	      3.00478564	     41.24033880	      0.71977970	     22.31775201	     -2.41251805	     -7.49999987	    -32.57197697	     -7.62823626	     -2.28900648	     85.45653455	     -5.58325618	     69.48210451	    104.34956784	     81.22286336	    103.47881163	      6.40745968	     70.74457639	    103.30746942	     87.57968691
      9.05000000	     11.37944169	      4.65544491	     -4.50322628	      0.86921160	      0.87358072	     -0.47055975	     42.62573494	    -13.28411104	      2.74426978	     23.69873459	      0.41362095	    -16.26864454	      3.68098440	     -7.49999987	     12.65225027	     12.33717976	      2.83958803	     43.01448909	      0.75074446	     22.85053640	     -3.02769801	     -7.49999987	    -33.18750330	     -7.96081879	     -1.84853666	     86.35073920	     -4.76198006	     69.54303108	    104.29653171	     80.71374143	    104.25024894	      7.14983825	     70.34451306	    103.40290612	     87.08313382
      9.06666670	     11.44874656	      5.63521602	     -4.29520940	      0.85729664	      0.87012454	     -0.47086375	     43.55318398	    -13.98487359	      3.72882977	     24.41729253	      0.42616215	    -16.64451662	      3.10778785	     -7.49999987	     14.17089228	     13.53906701	      2.48043533	     44.84368354	      0.78266993	     22.81108613	     -3.69240793	     -7.49999987	    -34.90375596	     -8.50211160	     -2.18193972	     88.87844580	     -4.92526383	     69.66990842	    106.81874132	     81.03730417	    106.40913607	      6.38402588	     68.91828397	    104.43957447	     87.26844034
      9.08333330	     11.46021694	      6.19966899	     -4.25840454	      0.86276602	      0.86453145	     -0.47423534	     44.14510167	    -14.37984819	      4.27347426	     24.72824896	      0.43158936	    -17.05186917	      2.88630655	     -7.49999987	     15.35719384	     14.37600464	      2.32874116	     46.40495046	      0.80991917	     23.06602222	     -4.22944153	     -7.49999987	    -35.39895003	     -8.68823423	     -3.41083237	     88.72528169	     -4.93114710	     69.46307944	    108.85358217	     81.28570866	    106.47388367	      4.90372866	     67.77539554	    104.40131546	     87.35939173
      9.10000000	     11.40991621	      6.91683365	     -4.15775571	      0.85151508	      0.86420586	     -0.47501187	     44.76123284	    -14.96498572	      4.69333396	     24.91657181	      0.43487622	    -17.49604508	      2.99012225	     -7.49999987	     16.42502145	     15.32491196	      2.15776053	     47.48236771	      0.82872365	     23.00574734	     -4.75043952	     -7.49999987	    -36.17695605	     -8.87836690	     -5.09605551	     88.13990554	     -5.79921701	     69.36342851	    107.64250177	     81.85428846	    106.72612907	      3.11687278	     67.45632324	    103.74653435	     87.70127950
